<svg xmlns="http://www.w3.org/2000/svg" width="221" height="25" viewBox="0 0 221 25" fill="none"><path fill-rule="evenodd" clip-rule="evenodd" d="M66.6004 0L55.6118 20.9059H59.1234L68.6465 2.50382H69.4405L75.1208 13.4606H65.8114C65.4123 14.2511 65.0978 14.849 64.6827 15.6385L64.6818 15.6401C64.5786 15.8362 64.4693 16.0442 64.3509 16.2698H76.4597L78.9334 20.911H82.445L71.4564 0H66.6004ZM0 0.0152964H3.11497V20.8907H0V0.0152964ZM19.2802 0.0152964H24.7162L9.22277 10.1883L25.0674 20.9009H19.7841L5.93983 11.4301C5.93983 11.4301 5.95 9.48096 5.93983 8.71252L19.2802 0.0152964ZM134.28 0.0101842H137.389V18.1273H140.194V24.4021H137.38V20.9161L116.328 20.9059V20.9161H113.218V0.0101842H116.328V18.1018H134.28V0.0101842ZM102.122 0H102.031H85.7384V20.9059H88.8533V2.80917H102.092C104.209 2.80917 105.868 4.5598 105.868 6.67176C105.868 8.78372 104.148 10.5191 102.031 10.5191L101.379 10.5293H91.6984V13.3385H102.061C105.762 13.3385 108.734 10.3715 108.734 6.67176C108.734 2.97202 105.823 0 102.122 0ZM50.6946 5.78117C50.6946 7.34354 50.0687 8.75828 49.0605 9.80156C50.6846 10.8906 51.7583 12.743 51.7583 14.8397C51.7583 18.1833 49.0352 20.9059 45.6912 20.9059H28.5386V0H44.5664H44.9024C48.0989 0 50.6946 2.58525 50.6946 5.78117ZM31.6535 18.0967H45.6912V18.0917C47.4726 18.0917 48.9231 16.6158 48.9231 14.8346C48.9231 13.0535 47.4726 11.6031 45.6912 11.6031L45.1264 11.5776L44.4036 11.5624H34.4886V8.75321H44.541C44.6682 8.75321 44.9278 8.74305 44.9278 8.74305C46.5616 8.74305 47.8648 7.32827 47.8648 5.77101C47.8648 4.21375 46.6533 2.9364 45.1214 2.82443C45.1214 2.82656 45.0557 2.82336 44.9644 2.81892C44.837 2.81271 44.6596 2.80408 44.541 2.80408H31.6535V18.0967ZM164.666 0.0203482H142.887V2.82443H164.666V0.0203482ZM152.237 5.69469H155.342V20.9059H152.237V5.69469ZM196.879 0.0203482H221V20.8805H217.895V2.82443H199.984V20.8855H196.879V0.0203482ZM177.014 20.9008H181.569V20.9059C187.331 20.9059 192.019 16.2189 192.019 10.4581C192.019 4.69723 187.331 0.0101842 181.569 0.0101842H177.014C171.252 0.0101842 166.564 4.69212 166.564 10.453C166.564 16.2138 171.252 20.9008 177.014 20.9008ZM169.364 10.4581C169.364 6.23922 172.795 2.80917 177.014 2.80917H181.569C185.789 2.80917 189.22 6.23922 189.22 10.4581C189.22 14.6769 185.789 18.1069 181.569 18.1069H177.014C172.795 18.1069 169.364 14.6769 169.364 10.4581Z" fill="#333F48"/>
</svg>